<svg width="24" height="24" viewBox="0 0 24 24" fill="none" xmlns="http://www.w3.org/2000/svg">
<path d="M2 17C3.63025 20.3926 6.29407 21.6055 9.5 20.721" stroke="#141B34" stroke-width="1.5" stroke-linejoin="round"/>
<path d="M9.99723 22V18.5721C9.99723 18.2107 10.0955 17.8561 10.2815 17.5461L10.8219 16.6457C10.8551 16.5904 10.8271 16.5184 10.7657 16.4986C7.18162 15.3385 5.18431 13.609 5.00412 10.0384C4.94874 8.94378 5.45528 7.60144 6.28691 6.03308C6.04107 4.57531 6.01086 3.69735 6.27119 2.1041C6.27982 2.05129 6.32942 2.01437 6.38259 2.02121C8.04565 2.235 8.96486 2.53917 10.1412 3.46622C12.3781 2.91659 14.2365 2.81353 16.8404 3.47767C17.6195 2.77889 18.7264 2.24677 20.533 2.00091C20.5826 1.99416 20.63 2.02566 20.6427 2.07399C20.9851 3.37417 21.0088 4.23711 20.6775 5.99134C21.3027 6.92457 22.0541 8.43036 21.9962 10.0383C21.7586 13.612 20.1494 15.1723 16.2325 16.496C16.1707 16.5169 16.1436 16.5908 16.1788 16.6456C16.4048 16.9978 16.5661 17.2592 16.7639 17.6272C16.9119 17.9025 16.9832 18.2118 16.9832 18.5243V22" stroke="#141B34" stroke-width="1.5"/>
</svg>
